<svg width="119" height="48" viewBox="0 0 119 48" fill="none" xmlns="http://www.w3.org/2000/svg">
<path d="M119 0H116.712H2.28846H0V2.28935V45.7107V48H2.28846H116.712H119V45.7107V2.28935V0Z" fill="#333F48"/>
<path fill-rule="evenodd" clip-rule="evenodd" d="M28.3766 13.0879H29.6352L39.4756 34.8749H35.5089L33.5256 30.4106H24.4862L22.4647 34.8749H18.498L28.3766 13.0879ZM28.9868 20.3757L26.0118 27.0148H31.9618L28.9868 20.3757ZM66.0605 13.0879H74.2227C76.3586 13.0879 81.2025 14.3089 81.2025 20.0704C81.2025 25.2978 76.1298 26.7477 74.833 26.9003C73.6125 27.0148 72.2012 27.0911 70.5612 27.0911H69.6839V34.8749H66.0605V13.0879ZM69.6839 23.6189C69.6839 23.6189 72.4301 23.6952 74.032 23.4663C76.1679 23.161 77.7317 22.3598 77.7698 20.0704C77.7698 16.9416 74.7186 16.6364 73.7269 16.6364H69.6839V23.6189ZM96.5343 34.8749H100.501L90.6988 13.0879H89.4401L79.5234 34.8749H83.4901L85.5116 30.4106H94.551L96.5343 34.8749ZM87.0372 27.0148L90.0122 20.3757L92.9872 27.0148H87.0372ZM56.9428 13.0879H61.6342L52.2896 22.9702L62.5114 34.8749H57.7057L49.3146 25.0688H46.6829V34.8749H43.0977V13.0879H46.6829V21.6348H48.9332L56.9428 13.0879Z" fill="white"/>
</svg>
