<?xml version="1.0" encoding="utf-8"?>
<!-- Svg Vector Icons : http://www.onlinewebfonts.com/icon -->
<!DOCTYPE svg PUBLIC "-//W3C//DTD SVG 1.1//EN" "http://www.w3.org/Graphics/SVG/1.1/DTD/svg11.dtd">
<svg version="1.1" xmlns="http://www.w3.org/2000/svg" xmlns:xlink="http://www.w3.org/1999/xlink" x="0px" y="0px" viewBox="0 0 256 256" enable-background="new 0 0 256 256" xml:space="preserve">
<metadata> Svg Vector Icons : http://www.onlinewebfonts.com/icon </metadata>
<g><g><path fill="#000000" d="M151.8,189.5c-1.3,5.4-8.2,17.1-19.1,33c3,0.7,5.9,1.5,8.8,2c5.3,1,10.6,1.7,15.9,2.7c1.7,0.3,2.6-0.3,3.5-1.7c10.6-15.8,19.2-32.8,26.4-50.4c2.8-6.9,5.2-14,7.8-21c0.3-0.7,0.5-1.4,0.8-2.3c5.7,2,11.3,3.9,17.1,5.9c-1,3.1-2,6-3,8.8c-8.8,24.4-19.7,47.6-34.2,69.1c-1.2,1.8-2.6,3.5-3.8,5.3c-2.7,4.1-6.6,5.4-11.4,4.9c-18.5-1.8-36.4-6-53.8-12.5c-31.6-11.9-58.8-30.1-80.4-56.4c-2.6-3.2-3.3-6.6-1.6-10.3c1.6-3.6,4.7-5.2,8.6-5.2c16.4-0.2,32.3-3.5,47.6-9.3c13.9-5.2,26.5-12.5,36.2-24c2.8-3.3,5.1-7.1,7.8-10.8c5,2.8,10.2,5.7,15.8,8.9c-2.9,4.2-5.5,8.5-8.6,12.4c-7.5,9.5-17,16.7-27.5,22.6c-15.8,8.8-33,13.9-50.8,16.8c-0.4,0-0.7,0.1-1.6,0.3c2.6,2.3,4.7,4.5,7.1,6.4c4.4,3.6,8.9,7.1,13.5,10.5c0.9,0.7,2.5,0.9,3.6,0.7c9.2-2.1,17.5-5.7,24.6-12.2c-0.6,3.2-6.4,11.3-14.5,20.4c5.1,2.5,10.2,4.8,15.1,7.6c6.2,3.7,12.2,2.7,18.3,0c10.3-4.5,19.1-11.1,27.6-18.4C148.9,192.2,150.2,190.9,151.8,189.5L151.8,189.5L151.8,189.5z M218.6,142.5c-28.9-12.9-57.6-25.7-86.6-38.5c2.4-5.6,6.1-9.8,11.2-12.8c8.5-5,17.3-5.6,26.3-1.6c11.6,5,23.1,10.1,34.6,15.4c13.4,6.2,19.8,20.2,15.7,34.1C219.5,140.2,219.1,141.3,218.6,142.5L218.6,142.5L218.6,142.5z M205.8,92.1c-9.1-4-18.1-8.1-27.1-12.1c-0.2-0.1-0.3-0.3-0.6-0.5c0.3-0.7,0.7-1.4,1-2c11.3-21.1,22.5-42.2,33.8-63.3c1.9-3.5,4.1-4.6,8.1-4c3.7,0.6,6.9,2.1,9.3,5.1c1.6,1.9,2,4,1.1,6.5c-8.4,23.1-16.8,46.3-25.1,69.4C206.2,91.3,206.1,91.6,205.8,92.1L205.8,92.1L205.8,92.1z"/></g></g>
</svg>