<?xml version="1.0" encoding="utf-8"?>
<!-- Generator: Adobe Illustrator 16.0.0, SVG Export Plug-In . SVG Version: 6.00 Build 0)  -->
<!DOCTYPE svg PUBLIC "-//W3C//DTD SVG 1.1//EN" "http://www.w3.org/Graphics/SVG/1.1/DTD/svg11.dtd">
<svg version="1.1" id="Layer_1" xmlns="http://www.w3.org/2000/svg" xmlns:xlink="http://www.w3.org/1999/xlink" x="0px" y="0px"
	 width="522.224px" height="131.672px" viewBox="0 0 522.224 131.672" enable-background="new 0 0 522.224 131.672"
	 xml:space="preserve">
<g>
	<g>
		<g>
			<rect y="65.893" fill="#ED1C24" width="52.582" height="4.346"/>
			<rect x="4.309" y="52.757" fill="#ED1C24" width="48.273" height="4.342"/>
			<rect x="8.742" y="59.266" fill="#ED1C24" width="52.766" height="4.345"/>
			<polygon fill="#242423" points="109.134,52.757 109.134,54.19 102.895,54.19 111.583,68.507 122.008,54.19 115.159,54.19 
				115.159,52.757 129.578,52.757 129.578,54.19 123.855,54.19 112.607,69.832 128.655,95.187 132.853,95.187 132.853,96.617 
				106.778,96.617 106.778,95.187 113.833,95.187 103.709,79.338 92.362,95.187 100.235,95.187 100.235,96.617 83.566,96.617 
				83.566,95.187 90.418,95.187 102.787,78.007 87.56,54.19 82.34,54.19 82.34,52.757 			"/>
			<path fill="#242423" d="M138.418,54.128v-1.436h19.014v7.567h0.202c2.117-5.997,6.142-8.989,12.068-8.989
				c3.954,0,7.332,0.764,10.124,2.293c2.793,1.535,5.092,3.46,6.897,5.778c1.808,2.319,3.136,4.842,3.994,7.57
				c0.846,2.719,1.277,5.276,1.277,7.667c0,3.065-0.553,5.997-1.643,8.795c-1.087,2.793-2.603,5.263-4.547,7.411
				c-1.938,2.14-4.271,3.865-7.005,5.163c-2.728,1.297-5.759,1.944-9.097,1.944c-3.136,0-5.662-0.86-7.561-2.566
				c-1.91-1.7-3.346-3.74-4.3-6.133h-0.207v34.453h6.959v1.434h-26.174v-1.434h6.744V54.128H138.418z M157.892,81.688
				c0.173,2.552,0.665,4.938,1.484,7.149c0.815,2.22,2.021,4.062,3.627,5.521c1.604,1.474,3.837,2.202,6.698,2.202
				c1.907,0,3.423-0.511,4.547-1.535c1.127-1.027,1.981-2.492,2.555-4.399c0.584-1.904,0.959-4.203,1.126-6.896
				c0.176-2.693,0.253-5.708,0.253-9.052c0-4.09-0.145-7.546-0.457-10.374c-0.304-2.833-0.834-5.095-1.578-6.8
				c-0.761-1.706-1.706-2.932-2.87-3.681c-1.155-0.752-2.623-1.13-4.399-1.13c-2.521,0-4.524,0.718-6.023,2.151
				c-1.51,1.428-2.625,3.236-3.38,5.416c-0.75,2.18-1.243,4.575-1.476,7.164c-0.241,2.591-0.366,5.004-0.366,7.254
				C157.634,76.794,157.719,79.125,157.892,81.688"/>
			<path fill="#242423" d="M214.654,75.5c0,2.449,0.105,4.916,0.301,7.405c0.212,2.495,0.76,4.737,1.643,6.752
				c0.883,2.01,2.18,3.667,3.886,4.956c1.7,1.294,4.087,1.941,7.158,1.941c2.716,0,5.018-0.506,6.9-1.53
				c1.871-1.027,3.409-2.202,4.601-3.533c1.186-1.32,2.075-2.634,2.656-3.932c0.579-1.294,0.903-2.242,0.974-2.869l1.431,0.511
				c-0.349,1.306-0.917,2.68-1.734,4.146c-0.823,1.465-1.95,2.833-3.377,4.087c-1.433,1.261-3.208,2.319-5.319,3.174
				c-2.112,0.852-4.663,1.277-7.666,1.277c-3.545,0-6.854-0.531-9.92-1.584c-3.063-1.059-5.742-2.592-8.026-4.601
				c-2.279-2.013-4.07-4.462-5.361-7.36c-1.303-2.9-1.944-6.189-1.944-9.865c0-2.932,0.61-5.793,1.836-8.594
				c1.231-2.793,2.912-5.253,5.061-7.411c2.148-2.143,4.671-3.886,7.569-5.206c2.895-1.334,6.017-2.006,9.352-2.006
				c2.39,0,4.771,0.38,7.158,1.127c2.384,0.758,4.53,1.913,6.44,3.474c1.907,1.572,3.477,3.602,4.706,6.085
				c1.226,2.495,1.839,5.478,1.839,8.958h-30.162V75.5z M231.02,62.617c0-0.755-0.04-1.674-0.114-2.764
				c-0.065-1.087-0.307-2.183-0.709-3.272c-0.403-1.093-1.079-2.01-1.998-2.759c-0.92-0.752-2.197-1.13-3.826-1.13
				c-2.327,0-4.11,0.554-5.37,1.641c-1.266,1.093-2.202,2.472-2.815,4.138c-0.613,1.675-1.005,3.474-1.169,5.421
				c-0.179,1.947-0.295,3.798-0.363,5.571h16.366V62.617z"/>
			<path fill="#242423" d="M272.415,52.692v8.589h0.204c1.224-2.586,2.873-4.82,4.956-6.696c2.08-1.873,4.825-2.813,8.239-2.813
				c2.855,0,5.166,0.772,6.942,2.302c1.776,1.533,2.659,3.673,2.659,6.392c0,2.049-0.493,3.645-1.481,4.803
				c-0.981,1.164-2.577,1.742-4.754,1.742c-1.575,0-3.003-0.326-4.294-0.971c-1.3-0.652-1.944-1.856-1.944-3.63
				c0-0.204,0.034-0.559,0.102-1.07c0.068-0.514,0.151-1.062,0.253-1.638c0.103-0.579,0.188-1.113,0.259-1.587
				c0.067-0.471,0.102-0.744,0.102-0.82c-0.07-0.542-0.173-0.968-0.304-1.277c-0.139-0.304-0.363-0.576-0.664-0.814
				c-0.304-0.239-0.769-0.361-1.382-0.361c-0.685,0-1.536,0.321-2.561,0.974c-1.024,0.644-1.973,1.586-2.855,2.804
				c-0.885,1.232-1.654,2.719-2.299,4.448c-0.658,1.745-0.974,3.704-0.974,5.883v26.175h8.075v1.433h-27.196v-1.433h6.647V54.128
				h-6.647v-1.436H272.415z"/>
			<path fill="#242423" d="M314.066,40.533c1.059,0.275,2.089,0.4,3.122,0.4c1.024,0,2.061-0.125,3.108-0.4
				c1.063-0.272,2.097-0.622,3.124-1.022v13.181h11.967v1.436h-11.967v34.249c0,1.022,0.063,1.976,0.199,2.861
				c0.142,0.892,0.395,1.686,0.774,2.409c0.378,0.71,0.92,1.274,1.635,1.678c0.713,0.414,1.646,0.622,2.811,0.622
				c1.291,0,2.4-0.272,3.323-0.82c0.917-0.551,1.72-1.24,2.401-2.101c0.681-0.846,1.24-1.819,1.68-2.912
				c0.452-1.09,0.81-2.143,1.076-3.167l1.541,0.306c-0.408,2.319-1.112,4.176-2.098,5.569c-0.99,1.399-2.111,2.472-3.371,3.227
				c-1.267,0.744-2.611,1.235-4.045,1.477c-1.431,0.241-2.796,0.36-4.087,0.36c-3.545,0-6.29-0.403-8.229-1.224
				c-1.938-0.817-3.383-1.839-4.291-3.074c-0.923-1.22-1.453-2.551-1.596-3.987c-0.133-1.431-0.198-2.753-0.198-3.984V54.128h-6.849
				v-1.436h6.849V39.511C311.972,39.911,313.005,40.261,314.066,40.533"/>
			<path fill="#242423" d="M20.926,50.592H35.18V27.931h15.633c3.21,0,5.932,0.602,8.163,1.816c2.222,1.212,4.042,2.64,5.452,4.274
				c1.408,1.646,2.509,3.327,3.292,5.063c0.786,1.737,1.348,3.165,1.672,4.274h1.286V26.549H13.246v1.382h7.68V50.592z"/>
			<path fill="#242423" d="M73.423,75.018c-0.659,2.821-1.609,5.452-2.844,7.91c-1.254,2.461-2.807,4.606-4.671,6.446
				c-1.871,1.833-4.019,3.261-6.44,4.273c-2.424,1.014-5.148,1.524-8.163,1.524H35.18V72.188H20.926v22.984h-7.66v1.383h61.437
				V75.018H73.423z"/>
			<rect x="354.96" fill="#242423" width="1.331" height="131.672"/>
		</g>
	</g>
	<path fill="#ED1C24" d="M458.698,102.768c-0.889-1.724-1.769-1.724-3.531-1.724c-12.332,0-23.778,0-36.113,0
		c-0.886,0-1.769,0-2.648,0c10.572-11.242,21.147-21.636,29.955-33.732c-0.883,4.328-1.76,7.783-2.643,12.096
		c6.17,0.88,11.449,1.737,16.74,3.469c0.877,0,1.765-0.863,1.765-0.863c1.755-0.868,3.52-2.605,5.282-3.465
		c7.928-5.186,18.074-1.8,21.597,6.843c0.352,0.764,0.582,1.416,0.658,1.651l18.871-11.838c-0.905-1.76-1.666-3.225-3.241-5.305
		c-9.689-11.242-21.142-15.568-36.119-12.971c1.757-6.92,2.643-12.971,4.399-19.894c12.332,0,24.667,0,37.002,0
		c0-6.908,0-12.974,0-19.025c-0.88-0.866-0.88-0.866-0.88-0.866c-16.737,0-33.482,0-51.094,0c-0.889,0-0.889,0.866-1.769,1.726
		c0,4.323-1.763,7.791-2.646,12.114C446.36,8.498,426.098,3.301,408.476,8.498c-18.5,4.323-27.311,20.753-26.425,36.321
		c7.045,0,13.212,0,20.257,0c0-0.86,0-1.729,0.886-2.594c0.886-8.648,6.167-14.702,14.092-15.562
		c9.692-0.866,15.86,5.183,16.743,12.105c0.88,5.191-0.883,9.508-2.64,12.974c-2.648,7.782-7.938,12.974-13.221,19.03
		c-13.218,12.968-25.547,25.07-38.771,38.059c0,0.862-0.871,0.862-0.871,1.723c0,3.457,0,6.06,0,9.517c0.871,0,1.762,0,2.639,0
		c18.929,0,37.837,0,55.939,0l23.458-14.711C459.796,104.496,459.138,103.63,458.698,102.768z"/>
	<g>
		<path fill="#ED1C24" d="M464.562,120.626c-1.49,0-2.489-0.497-2.489-0.497c0-4.388,0-4.388,0-4.388s0.5,0,0.999,0
			c0.988,0,1.981-1.465,1.981-4.882c0-1.465,0.497-9.272,0.497-9.272c15.414,0,15.414,0,15.414,0c0,18.542,0,18.542,0,18.542
			c-6.466,0-6.466,0-6.466,0c0-14.151,0-14.151,0-14.151c-3.479,0-3.479,0-3.479,0c0,2.443,0,4.394-0.496,6.349
			C470.028,117.696,468.538,120.626,464.562,120.626L464.562,120.626z"/>
		<path fill="#ED1C24" d="M483.95,111.348c0-0.488,0-0.488,0-0.488c0-5.855,4.467-9.758,10.436-9.758
			c4.97,0,9.446,2.926,9.446,9.758c0,1.467,0,1.467,0,1.467c-13.422,0-13.422,0-13.422,0c0.496,2.436,1.489,3.9,3.976,3.9
			c1.99,0,2.98-0.974,3.48-1.95c5.966,0,5.966,0,5.966,0c-0.497,3.905-3.979,6.35-9.446,6.35
			C488.417,120.626,483.95,117.202,483.95,111.348L483.95,111.348z M497.366,108.912c0-2.443-0.99-3.42-2.98-3.42
			c-1.989,0-3.479,0.977-3.976,3.42H497.366z"/>
		<polygon fill="#ED1C24" points="522.224,105.978 516.757,105.978 516.757,120.129 510.295,120.129 510.295,105.978 
			505.319,105.978 505.319,101.587 522.224,101.587 522.224,105.978 		"/>
		<polygon fill="#ED1C24" points="522.224,105.978 516.757,105.978 516.757,120.129 510.295,120.129 510.295,105.978 
			505.319,105.978 505.319,101.587 522.224,101.587 522.224,105.978 		"/>
		<path fill="#ED1C24" d="M464.562,120.626c-1.49,0-2.489-0.497-2.489-0.497c0-4.388,0-4.388,0-4.388s0.5,0,0.999,0
			c0.988,0,1.981-1.465,1.981-4.882c0-1.465,0.497-9.272,0.497-9.272c15.414,0,15.414,0,15.414,0c0,18.542,0,18.542,0,18.542
			c-6.466,0-6.466,0-6.466,0c0-14.151,0-14.151,0-14.151c-3.479,0-3.479,0-3.479,0c0,2.443,0,4.394-0.496,6.349
			C470.028,117.696,468.538,120.626,464.562,120.626L464.562,120.626z"/>
		<path fill="#ED1C24" d="M483.95,111.348c0-0.488,0-0.488,0-0.488c0-5.855,4.467-9.758,10.436-9.758
			c4.97,0,9.446,2.926,9.446,9.758c0,1.467,0,1.467,0,1.467c-13.422,0-13.422,0-13.422,0c0.496,2.436,1.489,3.9,3.976,3.9
			c1.99,0,2.98-0.974,3.48-1.95c5.966,0,5.966,0,5.966,0c-0.497,3.905-3.979,6.35-9.446,6.35
			C488.417,120.626,483.95,117.202,483.95,111.348L483.95,111.348z M497.366,108.912c0-2.443-0.99-3.42-2.98-3.42
			c-1.989,0-3.479,0.977-3.976,3.42H497.366z"/>
		<polygon fill="#ED1C24" points="522.224,105.978 516.757,105.978 516.757,120.129 510.295,120.129 510.295,105.978 
			505.319,105.978 505.319,101.587 522.224,101.587 522.224,105.978 		"/>
		<polygon fill="#ED1C24" points="522.224,105.978 516.757,105.978 516.757,120.129 510.295,120.129 510.295,105.978 
			505.319,105.978 505.319,101.587 522.224,101.587 522.224,105.978 		"/>
	</g>
</g>
</svg>
